# xmcd
#
# Track frame offsets:
#	150
#	36362
#	51913
#	69345
#	85774
#	104529
#	117708
#	139156
#	160973
#	173358
#	189309
#	209781
#	228825
#	248858
#	262525
#	279758
#	299272
#
# Disc length: 4486 seconds
#
# Revision: 0
# Processed by: cddbd v1.5.1PL2 Copyright (c) Steve Scherf et al.
# Submitted via: dBpowerAMP V4.0
#
DISCID=ef118411
DTITLE=Dave Fanning's Fab 50 - Dave Fanning's Fab 50 [CD1]
DYEAR=1900
DGENRE=
TTITLE0=Bad (Live)
TTITLE1=Take Me Out
TTITLE2=Rory Gallagher - Philby
TTITLE3=Freak Scene
TTITLE4=Common People
TTITLE5=Debaser
TTITLE6=A Forest
TTITLE7=The Radiators - Song Of The Faithful Departed
TTITLE8=There She Goes
TTITLE9=Girl From Mars
TTITLE10=Sweet Bird Of Truth
TTITLE11=Cocteau Twins - Pearly Dewdrops' Drop
TTITLE12=Step On
TTITLE13=The Undertones - Thrill Me
TTITLE14=Celebrate
TTITLE15=We Don't Need Nobody Else
TTITLE16=I Am The Resurrection
EXTD=
EXTT0=
EXTT1=
EXTT2=
EXTT3=
EXTT4=
EXTT5=
EXTT6=
EXTT7=
EXTT8=
EXTT9=
EXTT10=
EXTT11=
EXTT12=
EXTT13=
EXTT14=
EXTT15=
EXTT16=
PLAYORDER=
